<?xml version="1.0" encoding="UTF-8" standalone="no"?>
<svg
   xmlns:dc="http://purl.org/dc/elements/1.1/"
   xmlns:cc="http://creativecommons.org/ns#"
   xmlns:rdf="http://www.w3.org/1999/02/22-rdf-syntax-ns#"
   xmlns:svg="http://www.w3.org/2000/svg"
   xmlns="http://www.w3.org/2000/svg"
   xmlns:sodipodi="http://sodipodi.sourceforge.net/DTD/sodipodi-0.dtd"
   xmlns:inkscape="http://www.inkscape.org/namespaces/inkscape"
   version="1.0"
   width="385.000000pt"
   height="439.000000pt"
   viewBox="0 0 385.000000 439.000000"
   preserveAspectRatio="xMidYMid meet"
   id="svg3743"
   sodipodi:docname="logo.svg"
   inkscape:version="0.92.4 (5da689c313, 2019-01-14)">
  <defs
     id="defs3747" />
  <sodipodi:namedview
     pagecolor="#ffffff"
     bordercolor="#666666"
     borderopacity="1"
     objecttolerance="10"
     gridtolerance="10"
     guidetolerance="10"
     inkscape:pageopacity="0"
     inkscape:pageshadow="2"
     inkscape:window-width="1920"
     inkscape:window-height="1017"
     id="namedview3745"
     showgrid="false"
     inkscape:zoom="2.0488379"
     inkscape:cx="255.62031"
     inkscape:cy="116.76082"
     inkscape:window-x="-8"
     inkscape:window-y="-8"
     inkscape:window-maximized="1"
     inkscape:current-layer="svg3743" />
  <metadata
     id="metadata3731">
Created by potrace 1.15, written by Peter Selinger 2001-2017
<rdf:RDF>
  <cc:Work
     rdf:about="">
    <dc:format>image/svg+xml</dc:format>
    <dc:type
       rdf:resource="http://purl.org/dc/dcmitype/StillImage" />
    <dc:title></dc:title>
  </cc:Work>
</rdf:RDF>
</metadata>
  <rect
     id="rect3753"
     width="101.76501"
     height="228.4222"
     x="202.06578"
     y="103.68797"
     style="fill:#faa717;fill-opacity:1;stroke-width:0.56427276" />
  <rect
     style="fill:#f47c1f;fill-opacity:1;stroke-width:0.59451401"
     id="rect4560"
     width="101.76501"
     height="51.248573"
     x="202.06578"
     y="332.11017" />
  <rect
     style="fill:#fdd902;fill-opacity:1;stroke-width:0.72690785"
     id="rect4562"
     width="98.836525"
     height="276.01013"
     x="96.163483"
     y="100.08986" />
  <path
     style="fill:#ffffff;fill-opacity:1;stroke:none;stroke-width:0.75000006px;stroke-linecap:butt;stroke-linejoin:miter;stroke-opacity:1"
     d="M 266.96788,171.37992 357.75105,136.6041 327.00191,237.27093 292.22609,230.31578 273.55698,250.08307 262.57514,229.94971 267.7,219.7 l -32.94552,-21.59761 1.46425,-5.85698 z"
     id="path4564"
     inkscape:connector-curvature="0"
     sodipodi:nodetypes="cccccccccc" />
  <g
     transform="translate(0.000000,439.000000) scale(0.100000,-0.100000)"
     fill="#000000"
     stroke="none"
     id="g3741">
    <path
       d="m 1692,4080 c -127,-37 -228,-155 -239,-282 -8,-78 2,-105 42,-130 l 35,-20 v -79 -79 h -245 c -135,0 -253,-4 -263,-9 -9,-5 -32,-15 -50,-22 -47,-17 -116,-87 -143,-145 -22,-47 -23,-61 -27,-338 -3,-273 -5,-289 -23,-293 -34,-9 -243,-119 -319,-169 -41,-26 -112,-85 -157,-129 -139,-137 -176,-255 -117,-372 29,-56 48,-63 34,-11 -10,33 9,105 46,178 130.57958,143.0688 333.68235,357.7724 523,390 8,0 11,-120 9,-472 -3,-466 -3,-473 -23,-471 -148.0755,9.8356 -290.82656,35.7624 -415,96 -98,48 -91,43 -152,98 -27,23 -48,39 -48,35 0,-9 57,-126 73,-150 75.28738,-94.8416 156.2753,-144.0804 251,-191 16,-8 47,-18 70,-21 52.42327,-15.4333 107.84452,-25.3749 153,-29 l 92,-7 3,-407 c 3,-438 1,-417 60,-512 19,-29 49,-58 86,-80 50,-30 66,-34 147,-39 l 90,-5 5,-58 c 3,-36 11,-62 20,-67 19,-12 320,-13 339,-1 7,5 16,35 20,67 l 6,59 418,3 417,2 v -53 c 0,-84 7,-87 191,-87 85,0 160,4 168,9 7,5 16,35 20,67 l 6,59 90,5 c 81,5 97,9 147,39 37,22 69,53 94,90 l 39,56 3,677 3,678 44,-6 c 70,-10 90,-1 113,53 11,27 23,64 27,83 4,19 11,41 15,50 5,8 36,103 70,210 34,107 65,202 69,210 4,8 14,40 21,70 7,30 16,60 20,65 4,6 11,26 15,45 4,19 11,40 15,45 9,10 38,110 47,158 7,35 -13,82 -45,107 -50,40 -117,22 -324,-85 -38,-19 -72,-35 -78,-35 -6,0 -10,63 -10,171 0,158 -2,175 -22,217 -30,60 -99,128 -146,142 -20,7 -41,16 -47,21 -5,5 -121,9 -257,9 h -248 v 85 c 0,76 2,86 25,109 45,45 31,169 -28,256 -37,55 -69,90 -81,90 -5,0 -17,7 -26,15 -10,9 -49,24 -88,35 -100,28 -463,28 -560,0 z m 526,-190 c 44,-21 92,-81 92,-115 1,-33 38,-105 55,-105 12,0 15,-15 15,-90 v -90 h -390 -390 v 94 c 0,68 4,97 14,105 8,6 17,32 21,58 9,61 45,116 92,141 34,17 60,20 244,21 187,1 209,-1 247,-19 z m 677,-594 c 21,-8 52,-28 67,-45 l 28,-31 v -190 c -7.2107,-81.3565 26.656,-191.8452 -54,-214 -22,-5 -97,-40 -331,-151 -49,-23 -121,-57 -160,-75 -38,-18 -85,-46 -102,-63 -29,-27 -33,-37 -33,-85 0,-50 3,-57 37,-88 20,-19 41,-34 47,-34 13,0 146,-64 146,-70 0,-3 -35,-28 -77,-55 -83,-54 -83,-54 -188,-110 -38,-21 -72,-41 -75,-44 -11,-13 -154,-80 -162,-75 -9,6 -11,1328 -1,1337 3,4 189,7 412,7 319,0 415,-3 446,-14 z m -945,-696 v -690 l -27,-11 c -16,-6 -41,-17 -58,-24 -70,-31 -102,-44 -140,-55 -22,-7 -44,-16 -50,-20 -5,-4 -50,-19 -100,-34 -49,-15 -97,-31 -106,-35 -8,-5 -42,-14 -75,-20 -32,-7 -68,-16 -79,-21 -11,-5 -47,-14 -80,-19 -33,-6 -82,-15 -110,-20 -27,-5 -69,-10 -92,-10 l -43,-1 v 773 c 0,715 1,775 18,807 34,70 36,70 515,70 h 427 z m 1588,373 c 6,-9 6,-26 2,-37 -5,-12 -21,-61 -36,-111 -14,-49 -30,-94 -34,-100 -4,-5 -11,-26 -15,-45 -8,-38 -41,-143 -55,-175 -5,-11 -14,-40 -20,-65 -6,-25 -15,-54 -19,-65 -5,-11 -32,-93 -61,-182 -29,-90 -55,-163 -58,-163 -5,0 -164,76 -332,158 -79,39 -95,51 -98,72 -2,22 34,62 228,255 127,127 236,238 242,249 12,22 9,21 -81,-46 -36,-26 -88,-64 -116,-83 -27,-20 -79,-57 -115,-83 -36,-26 -75,-54 -86,-62 -74.8089,-51.3051 -231.0312,-181.8627 -312,-151 -9,5 -37,18 -62,29 -109,49 -120,55 -120,72 0,25 24,42 135,90 55.2779,29.8989 114.8913,55.2434 169,79 23,10 84,39 136,64 52,24 127,59 165,77 39,17 97,44 130,60 33,16 119,56 190,89 72,34 141,68 155,76 33,19 57,19 68,-2 z m -758,-817 c 61,-32 90,-56 90,-74 0,-15 -99,-162 -109,-162 -3,0 -17,30 -30,68 -12,37 -32,86 -42,109 -19,42 -25,84 -12,96 41.0403,18.4133 72.0984,-21.406 103,-37 z m -160,-121 c 11,-24 20,-47 20,-52 0,-21 47,-120 65,-135 11,-10 36,-17 56,-18 41,0 65,20 119,99 19,28 43,61 53,73 9,12 17,30 17,40 0,13 6,18 18,16 16,-3 17,-35 20,-481 l 2,-477 h -480 -480 v 370 370 l 38,18 c 63,31 195,109 277,163 33,21 67,42 75,46 34.1404,32.0659 131.981,75.7956 151,100 12,14 15,10 21,-36 5,-29 17,-72 28,-96 z M 1950,1210 V 629 l -444,3 c -428,3 -445,4 -466,23 -48,43 -50,60 -50,449 0,337 1,364 18,371 9,4 60,15 112,25 122,23 192,40 205,50 6,4 35,13 65,20 30,7 60,16 65,20 6,4 21,11 35,15 45,12 157,56 245,95 22,9 63,27 90,39 28,12 61,28 75,36 52,30 50,56 50,-565 z M 2990,855 c -2.3442,-75.75436 10.6117,-156.30166 -46,-204 -26,-21 -37,-21 -465,-21 h -439 v 190 190 h 475 475 z"
       id="path3733"
       inkscape:connector-curvature="0"
       sodipodi:nodetypes="ccccccscccccccccccccccscccccccccccccccccsscccccccccccscssscsccccsscccscsscscccccsscccscccccccccccccscsscccccsccccccccccsccccscsccccccscsccscccsccscccsccccsccccssccccssccccsccccccccccccsscccscccscccccsccscccccc" />
    <path
       d="M2096 2614 c-8 -20 -8 -398 0 -418 4 -9 18 -16 34 -16 16 0 30 7 34 16 8 20 8 398 0 418 -4 9 -18 16 -34 16 -16 0 -30 -7 -34 -16z"
       id="path3735" />
    <path
       d="M1832 2598 c-17 -17 -17 -399 0 -416 17 -17 55 -15 62 4 8 20 8 388 0 408 -7 19 -45 21 -62 4z"
       id="path3737" />
    <path
       d="M2370 925 c-10 -12 -10 -18 0 -30 10 -12 39 -15 139 -15 131 0 151 6 151 42 0 16 -12 18 -139 18 -111 0 -141 -3 -151 -15z"
       id="path3739" />
  </g>
</svg>
